<svg id="Capa_1" data-name="Capa 1" xmlns="http://www.w3.org/2000/svg" width="21.17mm" height="21.17mm" viewBox="0 0 60 60"><defs><style>.cls-1{fill:#2f56dc;}.cls-2{fill:#fff;}</style></defs><rect class="cls-1" width="60" height="60" rx="4"/><path class="cls-2" d="M39.86,45.87H20.11a.61.61,0,0,1-.62-.61.62.62,0,0,1,.62-.62H39.86a.61.61,0,0,1,.61.62A.61.61,0,0,1,39.86,45.87Z" transform="translate(0 0)"/><path class="cls-2" d="M26.44,45.87a.61.61,0,0,1-.61-.61V39.42a.61.61,0,0,1,.61-.62.62.62,0,0,1,.62.62v5.84A.61.61,0,0,1,26.44,45.87Z" transform="translate(0 0)"/><path class="cls-2" d="M33,45.87a.61.61,0,0,1-.61-.61V39.42a.61.61,0,1,1,1.22,0v5.84A.61.61,0,0,1,33,45.87Z" transform="translate(0 0)"/><path class="cls-2" d="M48.39,35.13H11.61a.61.61,0,0,1-.61-.61V15.58A1.57,1.57,0,0,1,12.56,14H47.41A1.58,1.58,0,0,1,49,15.33a.7.7,0,0,1,0,.25V34.52A.61.61,0,0,1,48.39,35.13ZM12.23,33.91H47.77V15.77a.58.58,0,0,1,0-.19.34.34,0,0,0-.33-.35H12.56a.34.34,0,0,0-.33.35Z" transform="translate(0 0)"/><path class="cls-2" d="M47.41,40H12.56A1.57,1.57,0,0,1,11,38.45V34.52a.61.61,0,0,1,.61-.61H48.39a.61.61,0,0,1,.61.61v3.93A1.64,1.64,0,0,1,47.41,40ZM12.23,35.14v3.31a.34.34,0,0,0,.33.35H47.41a.41.41,0,0,0,.37-.39V35.14Z" transform="translate(0 0)"/><path class="cls-2" d="M20.76,33a2.53,2.53,0,1,1,2.48-2.52A2.5,2.5,0,0,1,20.76,33Zm0-3.82A1.3,1.3,0,1,0,22,30.46,1.27,1.27,0,0,0,20.76,29.16Z" transform="translate(0 0)"/><path class="cls-2" d="M26.91,24a2.53,2.53,0,1,1,2.47-2.52A2.5,2.5,0,0,1,26.91,24Zm0-3.82a1.3,1.3,0,1,0,1.25,1.3A1.28,1.28,0,0,0,26.91,20.16Z" transform="translate(0 0)"/><path class="cls-2" d="M27.31,23.54l.88-.86,3.32,3.43-.88.85Z" transform="translate(0 0)"/><path class="cls-2" d="M21.2,28.83l4.45-6,1,.73-4.45,6Z" transform="translate(0 0)"/><path class="cls-2" d="M32.9,25.74l4.58-6,1,.74-4.58,6Z" transform="translate(0 0)"/><path class="cls-2" d="M39.24,21.2a2.53,2.53,0,1,1,2.48-2.52A2.51,2.51,0,0,1,39.24,21.2Zm0-3.82a1.3,1.3,0,1,0,1.25,1.3A1.27,1.27,0,0,0,39.24,17.38Z" transform="translate(0 0)"/><path class="cls-2" d="M32.2,30.29a2.53,2.53,0,1,1,2.48-2.53A2.51,2.51,0,0,1,32.2,30.29Zm0-3.83a1.3,1.3,0,1,0,1.26,1.3A1.28,1.28,0,0,0,32.2,26.46Z" transform="translate(0 0)"/></svg>