<svg id="Capa_1" data-name="Capa 1" xmlns="http://www.w3.org/2000/svg" width="21.87mm" height="21.87mm" viewBox="0 0 62 62"><defs><style>.cls-1{fill:#2f56dc;}.cls-2{fill:#fff;}</style></defs><circle class="cls-1" cx="31" cy="31" r="31"/><path class="cls-2" d="M45,26H27.3a.6.6,0,1,0,0,1.2H45A.6.6,0,0,0,45,26Z" transform="translate(0 0)"/><path class="cls-2" d="M45,30.2H27.3a.58.58,0,0,0-.6.6.53.53,0,0,0,.6.6H45a.6.6,0,1,0,0-1.2Z" transform="translate(0 0)"/><path class="cls-2" d="M45,34.5H27.3a.6.6,0,0,0,0,1.2H45a.6.6,0,0,0,0-1.2Z" transform="translate(0 0)"/><path class="cls-2" d="M46.8,21.1H25.6a3.22,3.22,0,0,0-3.2,3.2V37.6a3.22,3.22,0,0,0,3.2,3.2H40.5a.52.52,0,0,1,.4.2l4.8,6.1a1.23,1.23,0,0,0,.8.4.37.37,0,0,0,.3-.1,1,1,0,0,0,.7-.9V40.8a3.23,3.23,0,0,0,2.6-3.2V24.3A3.38,3.38,0,0,0,46.8,21.1Zm2.1,16.6a2.05,2.05,0,0,1-2.1,2.1.56.56,0,0,0-.5.6v5.8l-4.5-5.7a1.61,1.61,0,0,0-1.3-.6H25.6a2.11,2.11,0,0,1-2.1-2.1V24.3a2.11,2.11,0,0,1,2.1-2.1H46.8a2.11,2.11,0,0,1,2.1,2.1Z" transform="translate(0 0)"/><path class="cls-2" d="M20.2,30.3a1.52,1.52,0,0,0-1,.6l-3.8,4.8V30.8a.56.56,0,0,0-.5-.6,1.79,1.79,0,0,1-1.8-1.8V16.9a1.79,1.79,0,0,1,1.8-1.8H33.4a1.79,1.79,0,0,1,1.8,1.8V19a.58.58,0,0,0,.6.6.53.53,0,0,0,.6-.6V16.9A2.9,2.9,0,0,0,33.5,14H14.9A2.9,2.9,0,0,0,12,16.9V28.5a2.81,2.81,0,0,0,2.3,2.8v4.9a1,1,0,0,0,.6.9c.1,0,.2.1.3.1a.91.91,0,0,0,.7-.3l4.2-5.3c.1-.1.1-.1.2-.1a.56.56,0,0,0,.5-.6C20.8,30.5,20.5,30.2,20.2,30.3Z" transform="translate(0 0)"/></svg>