<svg id="Capa_1" data-name="Capa 1" xmlns="http://www.w3.org/2000/svg" width="21.17mm" height="21.17mm" viewBox="0 0 60 60"><defs><style>.cls-1{fill:#2f56dc;}.cls-2{fill:#fff;}</style></defs><rect class="cls-1" width="60" height="60" rx="4"/><path class="cls-2" d="M46.94,23.75h0a2.46,2.46,0,0,0-2.45,2.45V33a3,3,0,0,0-.86-.15h0a2.65,2.65,0,0,0-1.86.77l-5,5,0,.06a3.82,3.82,0,0,0-.79,2.91l.27,2.06-.06,0a1,1,0,0,0-1.25.72l-.44,1.63a1,1,0,0,0,.11.77,1,1,0,0,0,.61.47l8.81,2.36a.75.75,0,0,0,.26,0,1,1,0,0,0,.51-.14,1,1,0,0,0,.47-.62l.44-1.62a1.06,1.06,0,0,0-.1-.78A1,1,0,0,0,44.9,46l-.24-.06a3.1,3.1,0,0,1,.85-2.67l2.74-2.94a4,4,0,0,0,1.14-2.77V26.2A2.45,2.45,0,0,0,46.94,23.75ZM44.05,48.3l-8.39-2.25L36,44.83l8.4,2.25Zm4.11-10.79a2.78,2.78,0,0,1-.81,1.93l-2.74,2.94a4.21,4.21,0,0,0-1.2,3.17l-6-1.6-.34-2.56a2.59,2.59,0,0,1,.52-2l5-5a1.41,1.41,0,0,1,1-.41h0a1.4,1.4,0,0,1,1,.42,1.42,1.42,0,0,1,0,2l-2.69,2.67a.62.62,0,0,0,.87.87l2.69-2.67a2.66,2.66,0,0,0,.23-3.49V26.2a1.18,1.18,0,0,1,.36-.86,1.2,1.2,0,0,1,.86-.36h0a1.22,1.22,0,0,1,1.22,1.22Zm-23,6.8a1,1,0,0,0-.47-.62,1.06,1.06,0,0,0-.78-.1l-.06,0,.27-2.06a3.82,3.82,0,0,0-.79-2.91l-.05-.06-5-5a2.65,2.65,0,0,0-1.86-.77h0a3,3,0,0,0-.86.15V26.2a2.46,2.46,0,0,0-2.45-2.45h0a2.45,2.45,0,0,0-2.44,2.45V37.51a4,4,0,0,0,1.13,2.77l2.74,2.94a3.1,3.1,0,0,1,.85,2.67L15.1,46a1,1,0,0,0-.62.47,1.06,1.06,0,0,0-.1.78l.44,1.62a1,1,0,0,0,.47.62,1,1,0,0,0,.51.14.75.75,0,0,0,.26,0l8.81-2.36a1,1,0,0,0,.72-1.24Zm-9.76-1.93-2.74-2.94a2.78,2.78,0,0,1-.81-1.93V26.2A1.22,1.22,0,0,1,13.06,25a1.24,1.24,0,0,1,.87.36,1.21,1.21,0,0,1,.35.86v7.65a2.65,2.65,0,0,0,.24,3.49L17.2,40a.62.62,0,0,0,.87-.87l-2.69-2.67a1.42,1.42,0,0,1,0-2,1.4,1.4,0,0,1,1-.42h0a1.39,1.39,0,0,1,1,.41l5,5a2.59,2.59,0,0,1,.52,2L22.55,44l-6,1.6A4.21,4.21,0,0,0,15.39,42.38ZM16,48.3l-.33-1.22L24,44.83l.32,1.22ZM34.87,40V37.44a1.43,1.43,0,0,1,.72-1.27,11.12,11.12,0,0,0,3.88-3.92,10.94,10.94,0,1,0-18.94,0,11.12,11.12,0,0,0,3.88,3.92,1.43,1.43,0,0,1,.72,1.27V40a2,2,0,0,0,1.42,1.94v0a2.71,2.71,0,0,0,2.71,2.71h1.48a2.71,2.71,0,0,0,2.71-2.71v0A2,2,0,0,0,34.87,40ZM25,35.11a9.71,9.71,0,1,1,9.92,0,2.65,2.65,0,0,0-1.32,2.33v.86H26.36v-.86A2.65,2.65,0,0,0,25,35.11Zm5.7,8.3H29.26A1.48,1.48,0,0,1,27.78,42h4.44A1.48,1.48,0,0,1,30.74,43.41Zm2.1-2.65H27.16a.8.8,0,0,1-.8-.81v-.42h7.28V40A.8.8,0,0,1,32.84,40.76ZM40.7,20.5a.62.62,0,0,1,.22-.84l2.32-1.33a.61.61,0,1,1,.62,1.06l-2.32,1.34a.68.68,0,0,1-.31.08A.6.6,0,0,1,40.7,20.5ZM29.39,13.71V11a.61.61,0,1,1,1.22,0v2.67a.61.61,0,1,1-1.22,0Zm-7.74-.27a.61.61,0,1,1,1.06-.62l1.34,2.32a.61.61,0,0,1-.23.84.54.54,0,0,1-.3.08.63.63,0,0,1-.54-.3Zm-5.73,5.11a.62.62,0,0,1,.84-.22l2.32,1.33a.62.62,0,0,1,.22.84.6.6,0,0,1-.53.31.71.71,0,0,1-.31-.08l-2.32-1.34A.62.62,0,0,1,15.92,18.55Zm20-3.41,1.34-2.32a.61.61,0,0,1,1.06.62L37,15.76a.63.63,0,0,1-.54.3.54.54,0,0,1-.3-.08A.61.61,0,0,1,36,15.14Zm-7.88,18.7v.84a.61.61,0,0,0,.61.61h2.64a.61.61,0,0,0,.61-.61v-.84a7.43,7.43,0,0,0,1.7-.7l.59.59a.62.62,0,0,0,.87,0L37,31.86A.6.6,0,0,0,37,31l-.59-.6a7.38,7.38,0,0,0,.71-1.69h.83a.62.62,0,0,0,.62-.62V25.46a.62.62,0,0,0-.62-.62h-.84a6.93,6.93,0,0,0-.7-1.69l.59-.6a.6.6,0,0,0,0-.86l-1.86-1.87a.62.62,0,0,0-.87,0l-.59.59a7.43,7.43,0,0,0-1.7-.7v-.84a.61.61,0,0,0-.61-.61H28.68a.61.61,0,0,0-.61.61v.84a7.43,7.43,0,0,0-1.7.7l-.59-.59a.62.62,0,0,0-.87,0l-1.86,1.87a.6.6,0,0,0,0,.86l.59.6a6.93,6.93,0,0,0-.7,1.69H22.1a.62.62,0,0,0-.62.62v2.63a.62.62,0,0,0,.62.62h.84a6.93,6.93,0,0,0,.7,1.69l-.59.6a.6.6,0,0,0,0,.86l1.86,1.87a.62.62,0,0,0,.87,0l.59-.59A7.43,7.43,0,0,0,28.07,33.84Zm-2.22-1.92-.5.51-1-1,.5-.5a.62.62,0,0,0,.08-.78A6,6,0,0,1,24,28a.61.61,0,0,0-.6-.49h-.71V26.07h.71a.61.61,0,0,0,.6-.49,5.91,5.91,0,0,1,.91-2.18.62.62,0,0,0-.08-.78l-.5-.5,1-1,.5.5a.61.61,0,0,0,.77.08,6,6,0,0,1,2.18-.9.62.62,0,0,0,.5-.6v-.71h1.4v.71a.62.62,0,0,0,.5.6,6,6,0,0,1,2.18.9.61.61,0,0,0,.77-.08l.51-.5,1,1-.5.5a.62.62,0,0,0-.08.78A5.91,5.91,0,0,1,36,25.58a.61.61,0,0,0,.6.49h.71v1.41h-.71A.61.61,0,0,0,36,28a6,6,0,0,1-.91,2.18.62.62,0,0,0,.08.78l.5.5-1,1-.51-.51a.62.62,0,0,0-.77-.07,6,6,0,0,1-2.18.9.62.62,0,0,0-.5.6v.71H29.3v-.71a.62.62,0,0,0-.5-.6,6,6,0,0,1-2.18-.9A.62.62,0,0,0,25.85,31.92ZM30,31.48a4.71,4.71,0,1,0-4.71-4.71A4.71,4.71,0,0,0,30,31.48Zm-.37-1.24V27.62A.61.61,0,0,0,29,27h-.24L30,25.43,31.22,27H31a.61.61,0,0,0-.61.61v2.62l-.37,0ZM30,23.29a3.48,3.48,0,0,1,1.59,6.58V28.24h.35a.87.87,0,0,0,.69-1.41l-1.94-2.51A.85.85,0,0,0,30,24a.86.86,0,0,0-.69.34l-1.94,2.51a.85.85,0,0,0-.09.92.86.86,0,0,0,.78.49h.35v1.63A3.48,3.48,0,0,1,30,23.29Z" transform="translate(0 0)"/></svg>