<svg id="Capa_1" data-name="Capa 1" xmlns="http://www.w3.org/2000/svg" width="21.17mm" height="21.17mm" viewBox="0 0 60 60"><defs><style>.cls-1{fill:#2f56dc;}.cls-2{fill:#fff;}</style></defs><path class="cls-1" d="M4,0H56a4,4,0,0,1,4,4V56a4,4,0,0,1-4,4H4a4,4,0,0,1-4-4V4A4,4,0,0,1,4,0Z" transform="translate(0 0)"/><path class="cls-2" d="M19.7,23.6a4.24,4.24,0,0,1-.3-2.7,4.74,4.74,0,0,1,1.3-2.4,4.37,4.37,0,0,1,2.4-1.3,5,5,0,0,1,2.7.2,3.92,3.92,0,0,1,2.1,1.7,4.62,4.62,0,0,1,0,5.2A3.92,3.92,0,0,1,25.8,26a4.73,4.73,0,0,1-6.1-2.4Zm3-4.9a4.43,4.43,0,0,0-1.5,1.2,3,3,0,0,0-.5,1.9,2.79,2.79,0,0,0,.6,1.8,3.49,3.49,0,0,0,1.5,1.2,4.13,4.13,0,0,0,1.9.2,4,4,0,0,0,1.7-.9,3.29,3.29,0,0,0,.7-3.6,3.19,3.19,0,0,0-1.8-1.8A3,3,0,0,0,22.7,18.7Z" transform="translate(0 0)"/><path class="cls-2" d="M21.8,30.5a9,9,0,0,1-2.1-.8,1,1,0,0,1-.5-.4.66.66,0,0,1-.1-.6l.2-1.3-.9-.9-1.3.2a1.27,1.27,0,0,1-.6-.1,1,1,0,0,1-.4-.5l-.7-1.7a.85.85,0,0,1,0-.7,1,1,0,0,1,.4-.5l1.1-.8V21.2l-1.1-.8a1,1,0,0,1-.4-.5c-.1-.2,0-.4,0-.7l.7-1.7a1,1,0,0,1,.4-.5.66.66,0,0,1,.6-.1l1.3.2.9-.9L19,14.9a1.27,1.27,0,0,1,.1-.6.66.66,0,0,1,.5-.4l1.7-.7a.85.85,0,0,1,.7,0,1,1,0,0,1,.5.4l.8,1.1h1.2l.8-1.1a1,1,0,0,1,.5-.4c.2-.1.4,0,.7,0l1.7.7a1,1,0,0,1,.5.4.66.66,0,0,1,.1.6l-.2,1.3.9.9,1.3-.2a1.27,1.27,0,0,1,.6.1.66.66,0,0,1,.4.5l.7,1.7a.85.85,0,0,1,0,.7,1,1,0,0,1-.4.5l-1.1.8v1.2l1.1.8a1,1,0,0,1,.4.5c.1.2,0,.4,0,.7L32,26a1,1,0,0,1-.4.5.66.66,0,0,1-.6.1l-1.3-.2-.9.9.2,1.3a1.27,1.27,0,0,1-.1.6.66.66,0,0,1-.5.4l-1.7.7a.85.85,0,0,1-.7,0,1,1,0,0,1-.5-.4l-.9-.9H23.4l-.8,1.1a1.38,1.38,0,0,1-.4.3A.6.6,0,0,1,21.8,30.5Zm-1.3-1.9,1.2.5.9-1.2c.1-.1.2-.2.3-.2s.2-.1.4,0a4.85,4.85,0,0,0,1.7,0h.4c.1,0,.2.1.3.2l.9,1.2,1.2-.5-.2-1.4v-.4c0-.1.1-.2.2-.3A6.79,6.79,0,0,0,29,25.3c.1-.1.2-.2.3-.2s.2-.1.4,0l1.5.2.5-1.2-1.2-.9c-.1-.1-.2-.2-.2-.3s-.1-.2,0-.4a4.85,4.85,0,0,0,0-1.7v-.4c0-.1.1-.2.2-.3l1.2-.9L31.2,18l-1.4.2h-.4c-.1,0-.2-.1-.3-.2a6.79,6.79,0,0,0-1.2-1.2c-.1-.1-.2-.2-.2-.3s-.1-.2,0-.4l.2-1.5-1.2-.5-.9,1.2c-.1.1-.2.2-.3.2s-.2.1-.4,0a4.85,4.85,0,0,0-1.7,0H23c-.1,0-.2-.1-.3-.2l-.9-1.2-1.2.5.2,1.4v.4c0,.1-.1.2-.2.3a6.79,6.79,0,0,0-1.2,1.2c-.1.1-.2.2-.3.2s-.2.1-.4,0l-1.5-.2-.5,1.2,1.2.9c.1.1.2.2.2.3s.1.2,0,.4a4.85,4.85,0,0,0,0,1.7v.4c0,.1-.1.2-.2.3l-1.2.9.5,1.2,1.4-.2H19c.1,0,.2.1.3.2a6.79,6.79,0,0,0,1.2,1.2c.1.1.2.2.2.3s.1.2,0,.4Z" transform="translate(0 0)"/><path class="cls-2" d="M39.9,24.9a4.07,4.07,0,0,1-1.8-.5A3.33,3.33,0,0,1,36.9,23a3.72,3.72,0,0,1-.2-1.8,2.6,2.6,0,0,1,.9-1.6,4.17,4.17,0,0,1,1.6-.9,2.75,2.75,0,0,1,1.8.2,2.36,2.36,0,0,1,1.4,1.2,3.45,3.45,0,0,1,.5,1.8,2.94,2.94,0,0,1-.9,2.2A3,3,0,0,1,39.9,24.9Zm0-5a1.69,1.69,0,0,0-1,.3,2.7,2.7,0,0,0-.7.8,2,2,0,0,0-.1,1.1,1.35,1.35,0,0,0,.5.9,2,2,0,0,0,.9.5,2.08,2.08,0,0,0,1.1-.1,1.78,1.78,0,0,0,.8-.7,1.93,1.93,0,0,0,.3-1,1.9,1.9,0,0,0-.5-1.3A2.11,2.11,0,0,0,39.9,19.9Z" transform="translate(0 0)"/><path class="cls-2" d="M40.5,28.4H39.2a1.42,1.42,0,0,1-.6-.2.55.55,0,0,1-.3-.5l-.2-.8a4.88,4.88,0,0,0-.7-.3l-.7.4a1.27,1.27,0,0,1-.6.1.55.55,0,0,1-.5-.3l-.9-.8a2.19,2.19,0,0,1-.3-.5,1.27,1.27,0,0,1,.1-.6l.5-.8a4.88,4.88,0,0,1-.3-.7l-.8-.2a.85.85,0,0,1-.5-.3,1.42,1.42,0,0,1-.2-.6V21a1.42,1.42,0,0,1,.2-.6.55.55,0,0,1,.5-.3l.8-.2a4.88,4.88,0,0,0,.3-.7l-.4-.7a1.27,1.27,0,0,1-.1-.6.55.55,0,0,1,.3-.5l.9-.9a2.19,2.19,0,0,1,.5-.3,1.27,1.27,0,0,1,.6.1l.8.4a4.88,4.88,0,0,1,.7-.3l.2-.8a.85.85,0,0,1,.3-.5,1.42,1.42,0,0,1,.6-.2h1.3a1.42,1.42,0,0,1,.6.2.55.55,0,0,1,.3.5l.2.8a4.88,4.88,0,0,0,.7.3l.7-.4a1.27,1.27,0,0,1,.6-.1.55.55,0,0,1,.5.3l.9.9a2.19,2.19,0,0,1,.3.5.66.66,0,0,1-.1.6l-.5.8a4.88,4.88,0,0,1,.3.7l.8.2a.85.85,0,0,1,.5.3,1.42,1.42,0,0,1,.2.6v1.3a1.42,1.42,0,0,1-.2.6.55.55,0,0,1-.5.3l-1,.2a4.88,4.88,0,0,0-.3.7l.4.7a1.27,1.27,0,0,1,.1.6.55.55,0,0,1-.3.5l-.8,1a2.19,2.19,0,0,1-.5.3.66.66,0,0,1-.6-.1l-.8-.5a4.88,4.88,0,0,1-.7.3l-.2.8a.85.85,0,0,1-.3.5A.75.75,0,0,1,40.5,28.4Zm-1-1.3h.6l.2-.9c0-.1.1-.2.2-.3s.2-.1.3-.2a4.87,4.87,0,0,0,1.1-.4.5.5,0,0,1,.6,0l.8.5.4-.4-.5-.8a.5.5,0,0,1,0-.6,3.58,3.58,0,0,0,.4-1.1c0-.1.1-.2.2-.3s.2-.1.3-.2l.9-.2v-.6l-.9-.2c-.1,0-.2-.1-.3-.2s-.1-.2-.2-.3a4.87,4.87,0,0,0-.4-1.1.5.5,0,0,1,0-.6l.5-.8-.4-.4-.8.5a.5.5,0,0,1-.6,0,3.58,3.58,0,0,0-1.1-.4c-.1,0-.2-.1-.3-.2s-.1-.2-.2-.3l-.2-.9h-.6l-.2.9c0,.1-.1.2-.2.3s-.2.1-.3.2a4.87,4.87,0,0,0-1.1.4.5.5,0,0,1-.6,0l-.8-.5-.4.4.5.8a.5.5,0,0,1,0,.6,3.58,3.58,0,0,0-.4,1.1c0,.1-.1.2-.2.3s-.2.1-.3.2l-.9.2V22l.9.2c.1,0,.2.1.3.2s.1.2.2.3a4.87,4.87,0,0,0,.4,1.1.5.5,0,0,1,0,.6l-.5.8.4.4.8-.5a.5.5,0,0,1,.6,0,3.58,3.58,0,0,0,1.1.4c.1,0,.2.1.3.2s.1.2.2.3Z" transform="translate(0 0)"/><path class="cls-2" d="M46.7,33.2a4,4,0,0,0-1.5-.6,2.32,2.32,0,0,0-1.6.3l-5.8,2.9a2.29,2.29,0,0,0-.7-1,3.7,3.7,0,0,0-1.1-.5c-2.1-.1-6.4,0-6.6,0-.7,0-.7,0-5.9-1.7-1.6-.5-2.2-.2-7.4.9,0-.1-.1-.2-.1-.3s-.1-.2-.2-.2-.2-.1-.3-.1h-.3l-2.6.7a1,1,0,0,0-.5.4,1.27,1.27,0,0,0-.1.6L14.8,45c0,.1.1.2.1.3s.1.2.2.2a.37.37,0,0,0,.3.1h.3l2.6-.7c.1,0,.2-.1.3-.1s.2-.1.2-.2a.37.37,0,0,0,.1-.3V44l-.1-.5c.4,0,11.9,2.5,12.3,2.5a3.41,3.41,0,0,0,2.2-.3l14.8-9C50.4,35.2,47.4,33.7,46.7,33.2ZM15.8,43.8l-2.3-8.7v-.2l.1-.1a.1.1,0,0,0,.1-.1l.9-.2h.3c.1,0,.1.1.2.2,2.3,8.9,2.3,8.7,2.3,8.7v.2l-.1.1a.1.1,0,0,0-.1.1l-.9.2h-.2l-.1-.1C15.9,43.9,15.9,43.9,15.8,43.8ZM47,35.6c-2.4,1.5-14.5,8.8-14.5,8.8a1.39,1.39,0,0,1-1.1.2c-12.8-2.7-12.2-2.7-12.9-2.5L16.6,35h0c5.2-1.1,5.5-1.3,6.7-.9,5.2,1.6,5.3,1.7,6.3,1.7h0s4.4-.2,6.4,0c1,.1.9,1.9-.1,2.2-1.9.6-7.3.3-9.3.2a.68.68,0,0,0-.7.7c0,.2,0,.4.2.5a.76.76,0,0,0,.5.2c8.7.5,10.9-.2,11.5-2.2.1,0,6.3-3.2,6.3-3.2a1.13,1.13,0,0,1,.8-.1,1.33,1.33,0,0,1,.8.3,10.47,10.47,0,0,1,1.1.8l.1.1v.4C47.1,35.5,47,35.6,47,35.6Z" transform="translate(0 0)"/></svg>