<svg id="Capa_1" data-name="Capa 1" xmlns="http://www.w3.org/2000/svg" width="21.87mm" height="21.87mm" viewBox="0 0 62 62"><defs><style>.cls-1{fill:#2f56dc;}.cls-2{fill:#fff;}</style></defs><circle class="cls-1" cx="31" cy="31" r="31"/><path class="cls-2" d="M38.7,22.8l-1.4-.3-.3-.6.7-1.2a.62.62,0,0,0-.1-.7l-2-2a.62.62,0,0,0-.7-.1l-1.2.7-.6-.3L32.8,17a.63.63,0,0,0-.6-.5H29.4a.63.63,0,0,0-.6.5l-.3,1.4-.6.3L26.7,18a.62.62,0,0,0-.7.1l-2,2a.62.62,0,0,0-.1.7l.7,1.2-.3.6-1.4.3a.63.63,0,0,0-.5.6v2.8a.63.63,0,0,0,.5.6l1.4.3.3.6L23.8,29a.62.62,0,0,0,.1.7l2,2a.62.62,0,0,0,.7.1l1.2-.7.6.3.3,1.4a.63.63,0,0,0,.6.5h2.8a.63.63,0,0,0,.6-.5l.3-1.4.6-.3,1.2.7a.62.62,0,0,0,.7-.1l2-2a.62.62,0,0,0,.1-.7l-.7-1.2.3-.6,1.4-.3a.63.63,0,0,0,.5-.6V23.5A.84.84,0,0,0,38.7,22.8Zm-.8,3-1.2.3a.43.43,0,0,0-.4.4c-.1.4-.3.7-.4,1.1a.64.64,0,0,0,0,.6l.6,1.1-1.3,1.3L34.1,30a.64.64,0,0,0-.6,0,3.58,3.58,0,0,1-1.1.4c-.2.1-.4.2-.4.4L31.7,32H29.8l-.3-1.2a.43.43,0,0,0-.4-.4c-.4-.1-.7-.3-1.1-.4a.64.64,0,0,0-.6,0l-1.1.6L25,29.3l.6-1.1a.64.64,0,0,0,0-.6,3.58,3.58,0,0,1-.4-1.1c-.1-.2-.2-.4-.4-.4l-1.2-.3V23.9l1.2-.3a.43.43,0,0,0,.4-.4c.1-.4.3-.7.4-1.1a.64.64,0,0,0,0-.6L25,20.4l1.3-1.3,1.1.6a.64.64,0,0,0,.6,0,3.58,3.58,0,0,1,1.1-.4c.2-.1.4-.2.4-.4l.3-1.2h1.9l.3,1.2a.43.43,0,0,0,.4.4c.4.1.7.3,1.1.4a.64.64,0,0,0,.6,0l1.1-.6,1.3,1.3-.6,1.1a.64.64,0,0,0,0,.6,3.58,3.58,0,0,1,.4,1.1c.1.2.2.4.4.4l1.2.3Z" transform="translate(0 0)"/><path class="cls-2" d="M38.7,16A11.87,11.87,0,1,0,23.5,34.2a4.57,4.57,0,0,1,1.8,3A1.71,1.71,0,0,0,23.6,39a1.79,1.79,0,0,0,1.8,1.8V42h-.6a.6.6,0,0,0,0,1.2h.6v.6a1.79,1.79,0,0,0,1.8,1.8h.6a3,3,0,0,0,6,0h.6a1.79,1.79,0,0,0,1.8-1.8v-.6h.6a.6.6,0,0,0,0-1.2h-.6V40.8A1.79,1.79,0,0,0,38,39a1.77,1.77,0,0,0-1.7-1.8,4.5,4.5,0,0,1,1.8-3,11.75,11.75,0,0,0,4.7-9.4A12.58,12.58,0,0,0,38.7,16ZM30.8,47.4A1.79,1.79,0,0,1,29,45.6h3.6A1.79,1.79,0,0,1,30.8,47.4ZM35,43.9a.65.65,0,0,1-.6.6H27.3a.65.65,0,0,1-.6-.6v-.6H35Zm0-1.8H26.7V40.9H35Zm1.7-3a.65.65,0,0,1-.6.6H25.5a.6.6,0,0,1,0-1.2H36.2A.56.56,0,0,1,36.7,39.1Zm.6-5.7a5.9,5.9,0,0,0-2.3,4H26.6a5.9,5.9,0,0,0-2.3-4,10.88,10.88,0,0,1-4.2-9.6,10.83,10.83,0,0,1,9.4-9.5A10.4,10.4,0,0,1,37.8,17a10.54,10.54,0,0,1,3.6,8,10.27,10.27,0,0,1-4.1,8.4Z" transform="translate(0 0)"/><path class="cls-2" d="M48,24.3H45a.6.6,0,1,0,0,1.2h3a.65.65,0,0,0,.6-.6A.53.53,0,0,0,48,24.3Z" transform="translate(0 0)"/><path class="cls-2" d="M17.2,24.9a.65.65,0,0,0-.6-.6h-3a.6.6,0,1,0,0,1.2h3A.65.65,0,0,0,17.2,24.9Z" transform="translate(0 0)"/><path class="cls-2" d="M42.5,17.3a.37.37,0,0,0,.3-.1l2.4-1.7a.57.57,0,0,0-.7-.9l-2.4,1.7a.53.53,0,0,0-.1.8A.76.76,0,0,0,42.5,17.3Z" transform="translate(0 0)"/><path class="cls-2" d="M18.8,32.6l-2.4,1.7a.53.53,0,0,0-.1.8.55.55,0,0,0,.5.3.37.37,0,0,0,.3-.1l2.4-1.7a.53.53,0,0,0,.1-.8A.49.49,0,0,0,18.8,32.6Z" transform="translate(0 0)"/><path class="cls-2" d="M42.8,32.6a.57.57,0,1,0-.7.9l2.4,1.7a.37.37,0,0,0,.3.1.55.55,0,0,0,.5-.3.61.61,0,0,0-.1-.8Z" transform="translate(0 0)"/><path class="cls-2" d="M18.8,17.2a.37.37,0,0,0,.3.1.55.55,0,0,0,.5-.3.61.61,0,0,0-.1-.8L17,14.5a.57.57,0,0,0-.7.9Z" transform="translate(0 0)"/><path class="cls-2" d="M33.1,22.6,30,25.7l-1.4-1.4a.57.57,0,0,0-.8.8l1.8,1.8a.76.76,0,0,0,.4.2.52.52,0,0,0,.4-.2L34,23.3a.61.61,0,0,0,0-.8.94.94,0,0,0-.9.1Z" transform="translate(0 0)"/></svg>