<svg id="Capa_1" data-name="Capa 1" xmlns="http://www.w3.org/2000/svg" width="21.17mm" height="21.17mm" viewBox="0 0 60 60"><defs><style>.cls-1{fill:#2f56dc;}.cls-2{fill:#fff;}</style></defs><path class="cls-1" d="M4,0H56a4,4,0,0,1,4,4V56a4,4,0,0,1-4,4H4a4,4,0,0,1-4-4V4A4,4,0,0,1,4,0Z" transform="translate(0 0)"/><path class="cls-2" d="M39.9,45.9H20.1a.6.6,0,0,1,0-1.2H39.9a.6.6,0,0,1,0,1.2Z" transform="translate(0 0)"/><path class="cls-2" d="M26.4,45.9a.65.65,0,0,1-.6-.6V39.5a.6.6,0,0,1,1.2,0v5.8C27.1,45.6,26.8,45.9,26.4,45.9Z" transform="translate(0 0)"/><path class="cls-2" d="M32.9,45.9a.65.65,0,0,1-.6-.6V39.5a.6.6,0,0,1,1.2,0v5.8C33.6,45.6,33.3,45.9,32.9,45.9Z" transform="translate(0 0)"/><path class="cls-2" d="M48.4,35.1H11.6a.65.65,0,0,1-.6-.6V15.6A1.58,1.58,0,0,1,12.6,14H47.5A1.51,1.51,0,0,1,49,15.3a.35.35,0,0,0,.1.2V34.4C49,34.9,48.7,35.1,48.4,35.1ZM12.2,33.9H47.7V15.6a.45.45,0,0,0-.3-.4H12.6c-.2,0-.3.2-.3.4V33.9Z" transform="translate(0 0)"/><path class="cls-2" d="M47.4,40H12.6A1.58,1.58,0,0,1,11,38.4V34.5a.65.65,0,0,1,.6-.6H48.4a.65.65,0,0,1,.6.6v3.9A1.64,1.64,0,0,1,47.4,40ZM12.2,35.1v3.3a.45.45,0,0,0,.3.4H47.4a.43.43,0,0,0,.4-.4V35.1Z" transform="translate(0 0)"/><path class="cls-2" d="M20.8,33a2.5,2.5,0,1,1,2.5-2.5A2.54,2.54,0,0,1,20.8,33Zm0-3.8a1.3,1.3,0,1,0,1.3,1.3A1.39,1.39,0,0,0,20.8,29.2Z" transform="translate(0 0)"/><path class="cls-2" d="M26.9,24a2.5,2.5,0,1,1,2.5-2.5A2.48,2.48,0,0,1,26.9,24Zm0-3.8a1.3,1.3,0,1,0,1.3,1.3A1.26,1.26,0,0,0,26.9,20.2Z" transform="translate(0 0)"/><path class="cls-2" d="M27.3,23.5l.9-.9L31.5,26l-.9,1Z" transform="translate(0 0)"/><path class="cls-2" d="M21.2,28.8l4.5-6,1,.7-4.5,6Z" transform="translate(0 0)"/><path class="cls-2" d="M32.9,25.7l4.6-6,1,.7-4.6,6Z" transform="translate(0 0)"/><path class="cls-2" d="M39.2,21.2a2.5,2.5,0,1,1,2.5-2.5A2.48,2.48,0,0,1,39.2,21.2Zm0-3.8a1.3,1.3,0,1,0,1.3,1.3A1.32,1.32,0,0,0,39.2,17.4Z" transform="translate(0 0)"/><path class="cls-2" d="M32.2,30.3a2.5,2.5,0,1,1,2.5-2.5A2.48,2.48,0,0,1,32.2,30.3Zm0-3.8a1.3,1.3,0,1,0,1.3,1.3A1.26,1.26,0,0,0,32.2,26.5Z" transform="translate(0 0)"/></svg>