<svg xmlns="http://www.w3.org/2000/svg" xmlns:xlink="http://www.w3.org/1999/xlink" viewBox="0 0 435.43 170.25"><defs><style>.cls-1{fill:#19d6ff;}.cls-2{fill:#b2bec6;}.cls-3{fill:#dedfdf;stroke:#1bb1dc;stroke-miterlimit:10;stroke-width:4px;opacity:0.2;}.cls-4{fill:url(#Degradado_sin_nombre_25);}</style><linearGradient id="Degradado_sin_nombre_25" x1="44.76" y1="-449.03" x2="143.29" y2="-348.56" gradientTransform="matrix(1, 0, 0, -1, 0, -322.15)" gradientUnits="userSpaceOnUse"><stop offset="0" stop-color="#1bb1dc"/><stop offset="1" stop-color="#19d6ff"/></linearGradient></defs><title>logo-disenopaginablanco</title><g id="Capa_2" data-name="Capa 2"><g id="Capa_1-2" data-name="Capa 1"><g id="Capa_1-2-2" data-name="Capa 1-2"><path class="cls-1" d="M204.92,57.94q0,10.52-6.59,16.08t-19,5.56H165.94V37.12h14.82q11.44,0,17.8,5.46T204.92,57.94Zm-8.26.24q0-15.26-16.1-15.25h-6.78V73.74h5.57Q196.66,73.74,196.66,58.18Z"/><path class="cls-1" d="M221.25,79.58V37.12h7.84V79.58Z"/><path class="cls-1" d="M275.42,68.05a10.27,10.27,0,0,1-4.62,8.89q-4.62,3.23-12.75,3.22t-13.31-2.23V71.36a38.8,38.8,0,0,0,7,2.15,33.12,33.12,0,0,0,6.87.79c3.1,0,5.39-.53,6.87-1.57a4.91,4.91,0,0,0,2.21-4.21,5,5,0,0,0-2-4q-2-1.66-8.39-3.92-6.56-2.35-9.25-5.38A10.51,10.51,0,0,1,245.36,48a9.69,9.69,0,0,1,4.27-8.36q4.26-3.06,11.44-3.05a37.41,37.41,0,0,1,13.7,2.67l-2.49,5.66a33.34,33.34,0,0,0-11.41-2.38A9.55,9.55,0,0,0,255,43.93a4.64,4.64,0,0,0-2,3.88,5,5,0,0,0,.79,2.83,7.8,7.8,0,0,0,2.59,2.22,45.16,45.16,0,0,0,6.49,2.76,37.43,37.43,0,0,1,7.74,3.63,11,11,0,0,1,3.6,3.81A10.2,10.2,0,0,1,275.42,68.05Z"/><path class="cls-1" d="M317.85,79.58H290.74V37.12h27.11V43H298.58V54.54h18.06v5.81H298.58V73.69h19.27Z"/><path class="cls-1" d="M374.18,79.58h-9.6L341,45.74h-.27l.17,1.89c.3,3.6.46,6.9.46,9.88V79.58h-7.12V37.12h9.51l23.5,33.66h.2c0-.44-.13-2.07-.26-4.86s-.2-5-.2-6.55V37.12h7.18Zm-15-45.86a7.35,7.35,0,0,1-2.7-.51c-.89-.34-1.76-.71-2.61-1.13s-1.68-.8-2.49-1.13a6,6,0,0,0-2.33-.51q-2.66,0-3.57,3.34h-4A9.65,9.65,0,0,1,344,27.62a7.48,7.48,0,0,1,5.49-2.12,7.62,7.62,0,0,1,2.75.51c.9.34,1.77.71,2.63,1.13s1.67.8,2.47,1.13a5.93,5.93,0,0,0,2.31.51q2.6,0,3.48-3.34h4.09a9.9,9.9,0,0,1-2.52,6.09,7.4,7.4,0,0,1-5.5,2.19Z"/><path class="cls-1" d="M435.43,58.29q0,10.37-5.85,16.12T413,80.16q-10.86,0-16.67-5.7t-5.82-16.23q0-10.51,5.85-16.15t16.7-5.63q10.69,0,16.52,5.72T435.43,58.29Zm-36.59,0q0,7.85,3.58,11.9t10.59,4q7,0,10.54-4t3.55-11.94q0-7.81-3.52-11.85t-10.51-4q-7.05,0-10.64,4T398.84,58.29Z"/><path class="cls-2" d="M163.69,99.46q2.85-.48,6.29-.75t6.83-.27a49.55,49.55,0,0,1,7.1.51,19.06,19.06,0,0,1,6.42,2,11.92,11.92,0,0,1,6.46,11.41,12.74,12.74,0,0,1-5.71,11.2,17.75,17.75,0,0,1-5.88,2.52,29.1,29.1,0,0,1-6.83.79h-2.65a9.43,9.43,0,0,1-1.6-.09c-.52-.09-.89-.08-1.12-.12v14.51h-9.31Zm13.86,6.08q-1.35,0-2.58.09c-.81.06-1.47.13-2,.21v13.67c.27,0,.54.09.82.12s.74.07,1.15.09H177a22.16,22.16,0,0,0,3.64-.3,9.7,9.7,0,0,0,3.22-1.11,6.11,6.11,0,0,0,2.28-2.26,7.33,7.33,0,0,0,.85-3.79,6,6,0,0,0-.82-3.28A6.18,6.18,0,0,0,184,106.9a9.17,9.17,0,0,0-3-1.09A20.25,20.25,0,0,0,177.55,105.54Z"/><path class="cls-2" d="M224.1,131.86H209.49l-3.6,9.33h-9.31l17.13-42.45h6.86l17.13,42.45h-9.79Zm-12.23-6.63h10.2l-3.54-9.39-1.43-6.62h-.34l-1.42,6.68Z"/><path class="cls-2" d="M259.78,119.21h17.74V138a18.91,18.91,0,0,1-6.83,3.07,33.51,33.51,0,0,1-7.85,1,27.28,27.28,0,0,1-8.46-1.26,17.73,17.73,0,0,1-6.76-4,18.27,18.27,0,0,1-4.49-6.83,26.81,26.81,0,0,1-1.63-9.88,24,24,0,0,1,1.94-10.1,19.3,19.3,0,0,1,5.09-6.81,20.11,20.11,0,0,1,7.11-3.79,28.16,28.16,0,0,1,8-1.17,43,43,0,0,1,7.17.54,37.87,37.87,0,0,1,4.93,1.14l-1.9,6.93a22.56,22.56,0,0,0-3.81-.94,35.69,35.69,0,0,0-5.37-.33,17.36,17.36,0,0,0-5.36.79,10.46,10.46,0,0,0-4.25,2.55,12,12,0,0,0-2.79,4.55,20.26,20.26,0,0,0-1,6.74,19.9,19.9,0,0,0,1,6.54,12.18,12.18,0,0,0,2.65,4.51,10.39,10.39,0,0,0,4,2.62,13.9,13.9,0,0,0,4.86.85,15,15,0,0,0,3.47-.4,8.46,8.46,0,0,0,2.85-1.17v-8l-10.26-1Z"/><path class="cls-2" d="M288.66,99H298v42.15h-9.31Z"/><path class="cls-2" d="M322.23,119.21l-3.74-6.62h-.34l1.09,6.62v22h-8.83V98.74h6.79l18,22.46,3.6,6.44h.34l-1.08-6.44V99h8.83v42.45h-6.8Z"/><path class="cls-2" d="M381.83,131.86H367.22l-3.6,9.33h-9.31l17.12-42.45h6.87l17.12,42.45h-9.78Zm-12.23-6.63h10.19l-3.53-9.39-1.43-6.62h-.34l-1.43,6.68Z"/><path class="cls-2" d="M423.35,129.87a3.73,3.73,0,0,0-1.6-3.13,17.91,17.91,0,0,0-4-2.2c-1.6-.66-3.35-1.34-5.23-2.05a27.08,27.08,0,0,1-5.23-2.59,13.74,13.74,0,0,1-4-3.82,9.89,9.89,0,0,1-1.6-5.84,11.58,11.58,0,0,1,1.16-5.33,10.27,10.27,0,0,1,3.29-3.76,15,15,0,0,1,5.07-2.23,27.56,27.56,0,0,1,6.52-.72,46.52,46.52,0,0,1,7.82.63,21.08,21.08,0,0,1,6,1.84l-2.92,6.92a17.87,17.87,0,0,0-4.48-1.54,29.24,29.24,0,0,0-6.46-.69,9,9,0,0,0-5,1.15,3.49,3.49,0,0,0-1.74,3.07,3.62,3.62,0,0,0,1.6,3,19.11,19.11,0,0,0,4,2.23c1.61.67,3.36,1.37,5.23,2.1a29.73,29.73,0,0,1,5.23,2.62,14.06,14.06,0,0,1,4,3.8,9.5,9.5,0,0,1,1.6,5.62,12.6,12.6,0,0,1-1.26,5.82,11.23,11.23,0,0,1-3.53,4.06,15.79,15.79,0,0,1-5.51,2.41,30.3,30.3,0,0,1-7.1.78,42.49,42.49,0,0,1-9-.84,29.86,29.86,0,0,1-5.7-1.69l3-7a16.93,16.93,0,0,0,1.93.78,25.07,25.07,0,0,0,2.69.78c1,.24,2.05.44,3.16.6a23.19,23.19,0,0,0,3.43.25,13.23,13.23,0,0,0,6.35-1.24A4,4,0,0,0,423.35,129.87Z"/><path class="cls-3" d="M34.1,116.56,100.63,48A47.78,47.78,0,0,0,34.1,116.56Z"/><path class="cls-2" d="M63.7,20.66A62.5,62.5,0,0,0,42.89,24.2,65.7,65.7,0,0,0,18.81,39.63C3.13,55.52.57,75.18,0,81.66l.24,88.59H25.5V124l11.36-11.13a39.93,39.93,0,0,1,0-55.58,37.34,37.34,0,0,1,52.81-.88c.3.29.59.58.88.88l18-17.67A62.44,62.44,0,0,0,63.7,20.66Z"/><path class="cls-4" d="M127,0H101.78V46.24L90.42,57.36a40,40,0,0,1,0,55.59,37.34,37.34,0,0,1-52.81.88c-.3-.29-.59-.58-.88-.88l-18,17.67a62.61,62.61,0,0,0,88.54,1.23l1.23-1.23A64.6,64.6,0,0,0,126.68,90H127Z"/></g></g></g></svg>