<svg xmlns="http://www.w3.org/2000/svg" viewBox="0 0 387.21 147.27"><defs><style>.cls-1{fill:#14aaf3;}.cls-2{fill:#556373;}.cls-3{fill:#d3d3d3;}.cls-4{fill:#efefef;}.cls-5{fill:#474f59;}.cls-6{fill:none;stroke:#f4f4f4;stroke-miterlimit:10;}</style></defs><title>logo-disenopaginas</title><g id="Capa_2" data-name="Capa 2"><g id="Capa_1-2" data-name="Capa 1"><path class="cls-1" d="M201.94,56.85q0,8.44-5.3,12.92t-15.26,4.47H170.61V40.11h11.91q9.19,0,14.3,4.39T201.94,56.85ZM195.3,57q0-12.26-12.94-12.26h-5.45V69.55h4.47Q195.3,69.55,195.3,57Z"/><path class="cls-1" d="M215.07,74.24V40.11h6.29V74.24Z"/><path class="cls-1" d="M258.6,65a8.26,8.26,0,0,1-3.71,7.15q-3.72,2.58-10.25,2.59a27.15,27.15,0,0,1-10.7-1.8V67.64a31.75,31.75,0,0,0,5.6,1.72,26.56,26.56,0,0,0,5.52.63,9.66,9.66,0,0,0,5.52-1.26,4,4,0,0,0,1.78-3.38,4.06,4.06,0,0,0-1.64-3.25A25.76,25.76,0,0,0,244,59c-3.52-1.26-6-2.7-7.43-4.32a8.47,8.47,0,0,1-2.16-5.83,7.84,7.84,0,0,1,3.42-6.73c2.29-1.63,5.35-2.45,9.2-2.45a30,30,0,0,1,11,2.15l-2,4.55a26.58,26.58,0,0,0-9.17-1.91,7.67,7.67,0,0,0-4.64,1.18,3.69,3.69,0,0,0-1.58,3.11,4,4,0,0,0,.63,2.28,6.24,6.24,0,0,0,2.09,1.78A37.07,37.07,0,0,0,248.56,55a29.92,29.92,0,0,1,6.22,2.92,8.9,8.9,0,0,1,2.9,3.06A8.33,8.33,0,0,1,258.6,65Z"/><path class="cls-1" d="M292.7,74.24H270.92V40.11H292.7v4.72H277.21v9.29h14.52v4.67H277.21V69.5H292.7Z"/><path class="cls-1" d="M338,74.24h-7.72L311.31,47h-.21l.14,1.52c.24,2.9.36,5.54.36,7.94V74.24h-5.71V40.11h7.64l18.89,27.06h.16c0-.36-.11-1.66-.21-3.91s-.16-4-.16-5.27V40.11H338Zm-12-36.86a6.15,6.15,0,0,1-2.18-.41,22.76,22.76,0,0,1-2.09-.91c-.69-.33-1.35-.64-2-.91a4.91,4.91,0,0,0-1.87-.41c-1.43,0-2.38.9-2.88,2.69h-3.21a7.74,7.74,0,0,1,2-5,6,6,0,0,1,4.42-1.71,6.27,6.27,0,0,1,2.21.41c.72.27,1.42.58,2.11.91s1.34.64,2,.91a4.77,4.77,0,0,0,1.85.41c1.39,0,2.32-.89,2.8-2.68h3.29a8,8,0,0,1-2,4.89A6,6,0,0,1,325.94,37.38Z"/><path class="cls-1" d="M387.21,57.13c0,5.56-1.57,9.87-4.71,13s-7.57,4.62-13.32,4.62-10.28-1.53-13.39-4.59-4.68-7.4-4.68-13,1.57-10,4.7-13,7.61-4.53,13.43-4.53,10.15,1.54,13.28,4.6S387.21,51.56,387.21,57.13Zm-29.41,0q0,6.3,2.87,9.56T369.18,70c3.75,0,6.57-1.08,8.48-3.23s2.85-5.34,2.85-9.59-.94-7.36-2.83-9.52-4.7-3.25-8.44-3.25-6.63,1.08-8.55,3.25S357.8,52.94,357.8,57.13Z"/><path class="cls-2" d="M169.8,88.22c1.53-.26,3.21-.46,5-.6s3.67-.22,5.49-.22a39.37,39.37,0,0,1,5.71.41,15.39,15.39,0,0,1,5.16,1.64,9.62,9.62,0,0,1,5.19,9.17,10.25,10.25,0,0,1-4.59,9,14.33,14.33,0,0,1-4.72,2,23.7,23.7,0,0,1-5.49.63h-.88l-1.25,0c-.44,0-.87,0-1.29-.07a7.22,7.22,0,0,1-.9-.1v11.67H169.8Zm11.14,4.89c-.73,0-1.42,0-2.07.07s-1.19.11-1.59.17v11a4.71,4.71,0,0,0,.66.1c.29,0,.6.06.93.07l.95,0h.69a17.88,17.88,0,0,0,2.92-.24,7.65,7.65,0,0,0,2.59-.9,4.82,4.82,0,0,0,1.83-1.81,5.94,5.94,0,0,0,.68-3,4.83,4.83,0,0,0-.65-2.64,5.09,5.09,0,0,0-1.72-1.67,7.17,7.17,0,0,0-2.43-.87A16.08,16.08,0,0,0,180.94,93.11Z"/><path class="cls-2" d="M218.36,114.26H206.61l-2.89,7.5h-7.48L210,87.64h5.52l13.76,34.12h-7.87Zm-9.84-5.33h8.2l-2.84-7.55-1.15-5.32h-.27l-1.15,5.37Z"/><path class="cls-2" d="M247,104.09h14.26v15.1a15.18,15.18,0,0,1-5.49,2.47,26.56,26.56,0,0,1-6.31.77,21.88,21.88,0,0,1-6.8-1,14.31,14.31,0,0,1-5.44-3.17,15,15,0,0,1-3.6-5.49,21.83,21.83,0,0,1-1.31-7.94,19.35,19.35,0,0,1,1.56-8.16A15.21,15.21,0,0,1,238,91.2a15.93,15.93,0,0,1,5.71-3,22.42,22.42,0,0,1,6.44-1,33.8,33.8,0,0,1,5.77.44,30.46,30.46,0,0,1,4,.92l-1.53,5.56a17.57,17.57,0,0,0-3.06-.75,29.87,29.87,0,0,0-4.32-.26,14.07,14.07,0,0,0-4.31.63,8.43,8.43,0,0,0-3.41,2.05A9.4,9.4,0,0,0,241,99.45a18.52,18.52,0,0,0,0,10.67,9.8,9.8,0,0,0,2.13,3.63,8.38,8.38,0,0,0,3.19,2.1,11.24,11.24,0,0,0,3.91.68,12.28,12.28,0,0,0,2.78-.31,6.81,6.81,0,0,0,2.3-1v-6.39l-8.25-.77Z"/><path class="cls-2" d="M270.24,87.88h7.49v33.88h-7.49Z"/><path class="cls-2" d="M297.23,104.09l-3-5.32H294l.87,5.32v17.67h-7.1V87.64h5.46l14.48,18,2.89,5.18h.28l-.88-5.18V87.88h7.1V122h-5.46Z"/><path class="cls-2" d="M345.13,114.26H333.38l-2.89,7.5H323l13.76-34.12h5.52l13.76,34.12h-7.86Zm-9.83-5.33h8.19l-2.84-7.55-1.15-5.32h-.27l-1.15,5.37Z"/><path class="cls-2" d="M378.5,112.66a3,3,0,0,0-1.28-2.52,14.91,14.91,0,0,0-3.23-1.76c-1.29-.54-2.69-1.08-4.2-1.65a22.29,22.29,0,0,1-4.21-2.08,11.23,11.23,0,0,1-3.22-3.07,8,8,0,0,1-1.28-4.7A9.28,9.28,0,0,1,362,92.6a8.37,8.37,0,0,1,2.65-3,12.28,12.28,0,0,1,4.07-1.79A22.32,22.32,0,0,1,374,87.2a36.89,36.89,0,0,1,6.28.51,17.37,17.37,0,0,1,4.86,1.48l-2.35,5.56a14.15,14.15,0,0,0-3.61-1.23A23,23,0,0,0,374,93a7.33,7.33,0,0,0-4,.92,2.84,2.84,0,0,0-1.39,2.47,2.94,2.94,0,0,0,1.28,2.42,15.71,15.71,0,0,0,3.22,1.79c1.3.55,2.7,1.11,4.21,1.69a24,24,0,0,1,4.21,2.11,11.44,11.44,0,0,1,3.22,3,7.68,7.68,0,0,1,1.28,4.52,10.09,10.09,0,0,1-1,4.67,9,9,0,0,1-2.84,3.27,12.49,12.49,0,0,1-4.42,1.93,24.24,24.24,0,0,1-5.71.63,34.28,34.28,0,0,1-7.21-.67,23.84,23.84,0,0,1-4.59-1.36l2.4-5.66q.6.29,1.56.63t2.16.63c.8.19,1.65.35,2.54.48a19.07,19.07,0,0,0,2.76.2,10.61,10.61,0,0,0,5.1-1A3.24,3.24,0,0,0,378.5,112.66Z"/><path class="cls-3" d="M.29,0H115.4A30.58,30.58,0,0,1,146,30.58V146a0,0,0,0,1,0,0H28.71A28.71,28.71,0,0,1,0,117.26V.29A.29.29,0,0,1,.29,0Z" transform="translate(145.98 0) rotate(90)"/><path class="cls-4" d="M.12,146.7l146-146,.18,115.37A31.13,31.13,0,0,1,115,147.27Z"/><path class="cls-5" d="M73.36,21.49a50.37,50.37,0,0,0-16.75,2.85A52.68,52.68,0,0,0,37.25,36.75C24.63,49.53,22.57,65.35,22.11,70.56q.11,35.64.2,71.27H42.63v-37.2l9.13-8.95a32.13,32.13,0,0,1,0-44.71A30,30,0,0,1,95,51l14.52-14.22A50.19,50.19,0,0,0,73.36,21.49Z"/><path class="cls-6" d="M107.67,35c-2.15-3.49-9.59-8.23-17.57-10.66a53.57,53.57,0,0,0-16.74-2.85,50.37,50.37,0,0,0-16.75,2.85A52.33,52.33,0,0,0,37.25,36.75C25.07,49.12,22.84,64.23,22.31,69.41v72.42"/><path class="cls-1" d="M124.31,4.87H104v37.2l-9.14,9a32.14,32.14,0,0,1,0,44.72,30.06,30.06,0,0,1-43.19,0L37.14,110a50.37,50.37,0,0,0,72.23,0A52,52,0,0,0,124,77.29h.29Z"/></g></g></svg>