<svg width="195" height="72" viewBox="0 0 195 72" fill="none" xmlns="http://www.w3.org/2000/svg">
<path d="M71.5061 0.146624V56.4012C71.5061 64.661 64.7962 71.3568 56.5192 71.3568H0V14.027C0 6.30482 6.26903 0 14.0563 0H71.3591C71.4571 0 71.5061 0.0488745 71.5061 0.146624Z" fill="#F3FEFF" fill-opacity="0.22"/>
<path d="M36.6152 12.374C33.8235 12.374 31.0318 12.8627 28.3871 13.7913C24.8118 15.1109 21.5793 17.1637 18.8856 19.8518C12.7145 26.0588 11.735 33.781 11.4901 36.3714C11.5391 48.0035 11.5391 59.5868 11.5881 71.2189H21.5303V53.0376L25.9872 48.6877C20.061 42.5784 20.061 32.9013 25.9872 26.8408C31.6685 20.927 40.9251 20.7804 46.8024 26.401C46.9493 26.5476 47.0962 26.6453 47.1942 26.792L54.2958 19.8518C49.643 15.0621 43.276 12.374 36.6152 12.374Z" fill="#454655"/>
<path d="M61.2686 3.53546H51.3264V21.7168L46.8695 26.1155C52.7957 32.2248 52.7957 41.902 46.8695 47.9624C41.2372 53.7785 31.8826 53.9251 26.0544 48.3045C25.9564 48.2068 25.8095 48.0602 25.7115 47.9624L18.5609 54.9026C28.0624 64.6286 43.686 64.873 53.4324 55.3913C53.5793 55.2447 53.7752 55.0492 53.9221 54.9026C58.1341 50.6016 60.6809 44.9322 61.0727 38.9206H61.2197L61.2686 3.53546Z" fill="url(#paint0_linear_1093_60)"/>
<path d="M181.706 45.8359C181.628 45.1359 181.302 44.5938 180.731 44.2093C180.159 43.8199 179.439 43.6252 178.572 43.6252C177.951 43.6252 177.413 43.7238 176.96 43.9209C176.506 44.1132 176.154 44.3793 175.903 44.7194C175.656 45.0546 175.533 45.4366 175.533 45.8654C175.533 46.2252 175.617 46.5358 175.784 46.797C175.957 47.0582 176.181 47.2776 176.457 47.455C176.738 47.6275 177.039 47.7729 177.359 47.8912C177.68 48.0046 177.988 48.0983 178.283 48.1722L179.762 48.5567C180.245 48.6749 180.74 48.8351 181.248 49.0372C181.756 49.2393 182.226 49.5055 182.66 49.8357C183.094 50.166 183.444 50.5751 183.71 51.063C183.981 51.551 184.117 52.1351 184.117 52.8153C184.117 53.6729 183.895 54.4345 183.451 55.0999C183.013 55.7653 182.374 56.2902 181.536 56.6747C180.703 57.0591 179.695 57.2514 178.513 57.2514C177.379 57.2514 176.398 57.0715 175.57 56.7116C174.742 56.3518 174.094 55.8417 173.625 55.1812C173.157 54.5158 172.898 53.7271 172.849 52.8153H175.141C175.185 53.3624 175.363 53.8183 175.673 54.1831C175.989 54.5429 176.391 54.8115 176.879 54.989C177.371 55.1615 177.911 55.2477 178.498 55.2477C179.143 55.2477 179.718 55.1467 180.22 54.9446C180.728 54.7376 181.127 54.4517 181.418 54.087C181.709 53.7173 181.854 53.286 181.854 52.7931C181.854 52.3446 181.726 51.9774 181.47 51.6915C181.219 51.4056 180.876 51.169 180.442 50.9817C180.013 50.7944 179.528 50.6293 178.986 50.4863L177.196 49.9984C175.984 49.6681 175.023 49.1826 174.313 48.5419C173.608 47.9011 173.256 47.0533 173.256 45.9985C173.256 45.1261 173.492 44.3646 173.966 43.7139C174.439 43.0633 175.079 42.5581 175.888 42.1983C176.696 41.8335 177.608 41.6512 178.623 41.6512C179.649 41.6512 180.553 41.8311 181.337 42.1909C182.125 42.5507 182.747 43.0461 183.2 43.677C183.653 44.3029 183.89 45.0226 183.91 45.8359H181.706Z" fill="#4877E9"/>
<path d="M157.773 57H155.348L160.797 41.8582H163.436L168.885 57H166.46L162.179 44.6086H162.061L157.773 57ZM158.179 51.0704H166.046V52.9927H158.179V51.0704Z" fill="#4877E9"/>
<path d="M150.663 41.8582V57H148.563L140.866 45.895H140.726V57H138.441V41.8582H140.556L148.26 52.978H148.4V41.8582H150.663Z" fill="#4877E9"/>
<path d="M132.616 41.8582V57H130.331V41.8582H132.616Z" fill="#4877E9"/>
<path d="M122.485 46.6417C122.342 46.1932 122.15 45.7915 121.909 45.4366C121.672 45.0768 121.389 44.7712 121.058 44.5198C120.728 44.2635 120.351 44.0688 119.927 43.9357C119.508 43.8027 119.047 43.7361 118.545 43.7361C117.692 43.7361 116.923 43.9555 116.238 44.3941C115.553 44.8328 115.011 45.476 114.611 46.3238C114.217 47.1667 114.02 48.1993 114.02 49.4217C114.02 50.649 114.219 51.6866 114.619 52.5343C115.018 53.3821 115.565 54.0254 116.26 54.464C116.955 54.9027 117.746 55.122 118.633 55.122C119.456 55.122 120.174 54.9545 120.785 54.6193C121.401 54.2841 121.877 53.8109 122.212 53.1997C122.552 52.5836 122.722 51.8591 122.722 51.0261L123.313 51.137H118.981V49.2516H124.933V50.9743C124.933 52.246 124.661 53.3501 124.119 54.2866C123.582 55.2182 122.838 55.9378 121.886 56.4455C120.94 56.9532 119.856 57.207 118.633 57.207C117.263 57.207 116.06 56.8916 115.025 56.2606C113.995 55.6297 113.192 54.7351 112.615 53.5768C112.038 52.4136 111.75 51.0335 111.75 49.4365C111.75 48.2289 111.918 47.1445 112.253 46.1833C112.588 45.2222 113.059 44.4065 113.665 43.7361C114.276 43.0608 114.993 42.5458 115.816 42.1909C116.644 41.8311 117.549 41.6512 118.53 41.6512C119.348 41.6512 120.11 41.7719 120.814 42.0134C121.524 42.255 122.155 42.5975 122.707 43.0411C123.264 43.4847 123.725 44.0121 124.09 44.6233C124.454 45.2296 124.701 45.9024 124.829 46.6417H122.485Z" fill="#4877E9"/>
<path d="M97.1522 57H94.7272L100.176 41.8582H102.816L108.265 57H105.84L101.559 44.6086H101.44L97.1522 57ZM97.5589 51.0704H105.426V52.9927H97.5589V51.0704Z" fill="#4877E9"/>
<path d="M81.6636 57V41.8582H87.0608C88.2388 41.8582 89.2148 42.0726 89.9886 42.5014C90.7625 42.9302 91.3416 43.5168 91.7261 44.2611C92.1105 45.0004 92.3028 45.8334 92.3028 46.7601C92.3028 47.6916 92.1081 48.5296 91.7187 49.2738C91.3342 50.0132 90.7526 50.5997 89.9738 51.0335C89.2 51.4623 88.2265 51.6767 87.0534 51.6767H83.3419V49.7396H86.8464C87.5907 49.7396 88.1945 49.6115 88.6578 49.3552C89.1211 49.0939 89.4612 48.739 89.6781 48.2905C89.895 47.842 90.0034 47.3318 90.0034 46.7601C90.0034 46.1883 89.895 45.6806 89.6781 45.237C89.4612 44.7934 89.1187 44.4459 88.6504 44.1945C88.1871 43.9431 87.5759 43.8175 86.8168 43.8175H83.9482V57H81.6636Z" fill="#4877E9"/>
<path d="M81.8641 35V19.4297H87.2588C88.9255 19.4297 90.3144 19.7806 91.4255 20.4823C92.5513 21.1695 93.3919 22.1052 93.9475 23.2894C94.503 24.459 94.7808 25.7602 94.7808 27.1929C94.7808 28.7719 94.4738 30.1462 93.8598 31.3158C93.2457 32.4854 92.3758 33.3918 91.2501 34.0351C90.1244 34.6784 88.7939 35 87.2588 35H81.8641ZM92.7852 27.1929C92.7852 26.0233 92.5659 24.9853 92.1273 24.0789C91.7033 23.1724 91.082 22.4633 90.2632 21.9516C89.4445 21.4399 88.4431 21.1841 87.2588 21.1841H83.8378V33.2456H87.2588C88.4577 33.2456 89.4665 32.9824 90.2852 32.4561C91.1039 31.9152 91.7252 31.1915 92.1492 30.285C92.5732 29.364 92.7852 28.3333 92.7852 27.1929ZM102.167 35V19.4297H104.141V35H102.167ZM121.614 22.6973C121.439 22.4926 121.205 22.2952 120.912 22.1052C120.62 21.9151 120.291 21.747 119.925 21.6008C119.56 21.4399 119.158 21.3157 118.719 21.228C118.295 21.1256 117.849 21.0744 117.382 21.0744C116.183 21.0744 115.298 21.3011 114.728 21.7543C114.158 22.2075 113.873 22.8288 113.873 23.6183C113.873 24.1739 114.019 24.6125 114.311 24.9341C114.604 25.2558 115.05 25.5189 115.649 25.7236C116.263 25.9283 117.038 26.1403 117.974 26.3596C119.056 26.5935 119.991 26.8786 120.781 27.2148C121.57 27.5511 122.177 28.0043 122.601 28.5745C123.025 29.1301 123.237 29.8757 123.237 30.8114C123.237 31.557 123.091 32.2076 122.798 32.7631C122.521 33.3041 122.126 33.7573 121.614 34.1228C121.102 34.4737 120.503 34.7368 119.816 34.9123C119.129 35.0731 118.383 35.1535 117.579 35.1535C116.789 35.1535 116.015 35.0731 115.254 34.9123C114.509 34.7368 113.8 34.4883 113.127 34.1667C112.455 33.845 111.826 33.443 111.241 32.9605L112.184 31.2938C112.418 31.5424 112.718 31.7909 113.083 32.0394C113.463 32.2734 113.887 32.4927 114.355 32.6973C114.838 32.902 115.357 33.0702 115.912 33.2017C116.468 33.3187 117.038 33.3772 117.623 33.3772C118.734 33.3772 119.597 33.1798 120.211 32.7851C120.825 32.3757 121.132 31.7836 121.132 31.0087C121.132 30.4239 120.956 29.9561 120.605 29.6052C120.269 29.2543 119.765 28.9619 119.092 28.728C118.42 28.4941 117.601 28.2602 116.636 28.0263C115.583 27.7631 114.699 27.478 113.982 27.171C113.266 26.8493 112.725 26.4327 112.36 25.921C112.009 25.4093 111.833 24.7441 111.833 23.9253C111.833 22.9312 112.075 22.0905 112.557 21.4034C113.039 20.7163 113.705 20.1972 114.553 19.8464C115.401 19.4955 116.358 19.32 117.425 19.32C118.127 19.32 118.778 19.3931 119.377 19.5393C119.991 19.6855 120.561 19.8902 121.088 20.1534C121.614 20.4165 122.097 20.7309 122.535 21.0964L121.614 22.6973ZM141.008 33.2456V35H130.438V19.4297H140.811V21.1841H132.412V26.228H139.715V27.8727H132.412V33.2456H141.008ZM150.295 23.0701V35H148.321V19.4297H149.988L159.506 31.6008V19.4516H161.479V35H159.681L150.295 23.0701ZM156.304 17.1709C155.865 17.1709 155.492 17.0978 155.185 16.9516C154.878 16.7908 154.593 16.6373 154.33 16.4911C154.082 16.3303 153.797 16.2498 153.475 16.2498C153.153 16.2498 152.912 16.3303 152.751 16.4911C152.605 16.6519 152.51 16.82 152.466 16.9955C152.422 17.1709 152.4 17.2732 152.4 17.3025H151.26C151.26 17.2148 151.289 17.0539 151.348 16.82C151.421 16.5715 151.538 16.3156 151.699 16.0525C151.859 15.7747 152.079 15.5408 152.356 15.3507C152.634 15.146 152.992 15.0437 153.431 15.0437C153.855 15.0437 154.206 15.1241 154.484 15.2849C154.776 15.4311 155.054 15.5846 155.317 15.7455C155.595 15.9063 155.909 15.9867 156.26 15.9867C156.64 15.9867 156.911 15.9063 157.071 15.7455C157.247 15.57 157.357 15.3946 157.4 15.2191C157.459 15.0437 157.488 14.9414 157.488 14.9121H158.628C158.628 14.9998 158.592 15.1607 158.519 15.3946C158.46 15.6285 158.343 15.8843 158.168 16.1621C157.993 16.4399 157.751 16.6811 157.444 16.8858C157.152 17.0759 156.772 17.1709 156.304 17.1709ZM176.118 35.1097C175.022 35.1097 174.028 34.8904 173.136 34.4517C172.244 34.0131 171.469 33.421 170.811 32.6754C170.168 31.9152 169.671 31.0672 169.32 30.1315C168.969 29.1812 168.794 28.209 168.794 27.2148C168.794 26.1768 168.976 25.19 169.342 24.2543C169.722 23.304 170.241 22.4633 170.899 21.7323C171.572 20.9867 172.354 20.4019 173.246 19.9779C174.137 19.5393 175.11 19.32 176.162 19.32C177.259 19.32 178.253 19.5467 179.145 19.9999C180.036 20.4531 180.804 21.0598 181.447 21.8201C182.091 22.5803 182.588 23.4283 182.939 24.3639C183.289 25.2996 183.465 26.2572 183.465 27.2368C183.465 28.2748 183.282 29.269 182.917 30.2193C182.551 31.1549 182.032 31.9956 181.36 32.7412C180.702 33.4722 179.927 34.0497 179.035 34.4737C178.143 34.8977 177.171 35.1097 176.118 35.1097ZM170.789 27.2148C170.789 28.0043 170.914 28.7719 171.162 29.5175C171.425 30.2485 171.791 30.8991 172.259 31.4693C172.726 32.0394 173.289 32.4927 173.947 32.8289C174.605 33.1652 175.336 33.3333 176.14 33.3333C176.974 33.3333 177.719 33.1579 178.377 32.807C179.035 32.4561 179.591 31.9883 180.044 31.4035C180.512 30.8187 180.863 30.1608 181.096 29.4298C181.345 28.6988 181.469 27.9605 181.469 27.2148C181.469 26.4254 181.338 25.6651 181.075 24.9341C180.826 24.2031 180.46 23.5525 179.978 22.9824C179.51 22.3976 178.947 21.9443 178.289 21.6227C177.646 21.2864 176.93 21.1183 176.14 21.1183C175.307 21.1183 174.561 21.2937 173.903 21.6446C173.246 21.9809 172.683 22.4414 172.215 23.0262C171.762 23.611 171.411 24.2689 171.162 24.9999C170.914 25.7163 170.789 26.4546 170.789 27.2148Z" fill="#737285"/>
<defs>
<linearGradient id="paint0_linear_1093_60" x1="33.4829" y1="60.6597" x2="40" y2="2" gradientUnits="userSpaceOnUse">
<stop stop-color="#4877E9"/>
<stop offset="1" stop-color="#00F4F3"/>
</linearGradient>
</defs>
</svg>
