<svg xmlns="http://www.w3.org/2000/svg" viewBox="0 0 214.69 80.73"><defs><style>.cls-1{fill:#eeeeef;}.cls-2{fill:#434656;}.cls-3{fill:#4379dc;}.cls-4{fill:#646778;}</style></defs><g id="Capa_2" data-name="Capa 2"><g id="Capa_1-2" data-name="Capa 1"><path class="cls-1" d="M80.9.17V63.81A16.93,16.93,0,0,1,64,80.73H0V15.87A15.88,15.88,0,0,1,15.9,0H80.74C80.85,0,80.9.06,80.9.17Z"/><path class="cls-2" d="M41.43,14a28.17,28.17,0,0,0-9.31,1.6,29.87,29.87,0,0,0-10.75,6.86c-7,7-8.09,15.76-8.37,18.69.06,13.16.06,26.27.11,39.43H24.36V60l5-4.92a17.71,17.71,0,0,1,0-24.72A16.62,16.62,0,0,1,53,29.87a3.79,3.79,0,0,1,.45.44l8-7.85A27.85,27.85,0,0,0,41.43,14Z"/><path class="cls-3" d="M98.65,40V19.85h7a9.93,9.93,0,0,1,5.4,1.37,8.27,8.27,0,0,1,3.26,3.64,11.61,11.61,0,0,1,1.08,5.05,11.32,11.32,0,0,1-1.19,5.35,8.56,8.56,0,0,1-3.38,3.52A10.18,10.18,0,0,1,105.65,40Zm14.16-10.12a9.25,9.25,0,0,0-.85-4,6.37,6.37,0,0,0-2.42-2.76,7.23,7.23,0,0,0-3.89-1h-4.44V37.76h4.44a7.12,7.12,0,0,0,3.92-1A6.75,6.75,0,0,0,112,33.92,9.46,9.46,0,0,0,112.81,29.91Zm9,10.12V19.85h2.56V40Zm22.07-15.94a4.15,4.15,0,0,0-.9-.77,9.21,9.21,0,0,0-2.85-1.14,7.46,7.46,0,0,0-1.73-.19,5.49,5.49,0,0,0-3.44.88,2.9,2.9,0,0,0-1.11,2.41,2.45,2.45,0,0,0,.57,1.71,4.11,4.11,0,0,0,1.74,1c.79.27,1.8.54,3,.82a21.63,21.63,0,0,1,3.64,1.11,5.61,5.61,0,0,1,2.35,1.77A4.64,4.64,0,0,1,146,34.6a5.34,5.34,0,0,1-.57,2.53,4.92,4.92,0,0,1-1.54,1.77,7.43,7.43,0,0,1-2.32,1,12.71,12.71,0,0,1-2.9.31,14.46,14.46,0,0,1-3-.31,13.59,13.59,0,0,1-2.75-1,12,12,0,0,1-2.45-1.56l1.22-2.16a8.14,8.14,0,0,0,1.17,1,14.06,14.06,0,0,0,1.65.85,12.92,12.92,0,0,0,2,.65,10.83,10.83,0,0,0,2.21.23,6.23,6.23,0,0,0,3.36-.77,2.61,2.61,0,0,0,1.19-2.3,2.48,2.48,0,0,0-.68-1.82,5.1,5.1,0,0,0-2-1.14c-.87-.3-1.94-.6-3.19-.91a23.63,23.63,0,0,1-3.43-1.1,5.15,5.15,0,0,1-2.11-1.62,4.55,4.55,0,0,1-.68-2.59,5.51,5.51,0,0,1,.94-3.27,5.81,5.81,0,0,1,2.58-2,9.76,9.76,0,0,1,3.73-.68A10.65,10.65,0,0,1,141,20a10.33,10.33,0,0,1,2.21.79A9.94,9.94,0,0,1,145.11,22Zm22,13.67V40h-13.7V19.85h13.45v2.28H154.78v6.53h9.47V30.8h-9.47v7Zm8.91-13.19V40h-2.56V19.85h2.16l12.34,15.78V19.88h2.55V40H187Zm7.79-7.64a3.35,3.35,0,0,1-1.45-.29l-1.11-.59a2,2,0,0,0-1.11-.32,1.27,1.27,0,0,0-.94.32,1.48,1.48,0,0,0-.37.65c0,.23-.08.36-.08.4h-1.48a3.56,3.56,0,0,1,.11-.63,4.36,4.36,0,0,1,.46-1,2.73,2.73,0,0,1,.85-.91,2.28,2.28,0,0,1,1.4-.4,2.68,2.68,0,0,1,1.36.31q.57.29,1.08.6a2.38,2.38,0,0,0,1.22.31,1.45,1.45,0,0,0,1.05-.31,1.52,1.52,0,0,0,.43-.68,2.91,2.91,0,0,0,.11-.4h1.48a2.94,2.94,0,0,1-.14.63,3.58,3.58,0,0,1-.46,1,3.2,3.2,0,0,1-.93.94A2.75,2.75,0,0,1,182.62,16.93Zm22.55,23.24a8.65,8.65,0,0,1-3.87-.85,9.66,9.66,0,0,1-3-2.3,11.05,11.05,0,0,1-1.93-3.3,10.7,10.7,0,0,1-.68-3.78,10.3,10.3,0,0,1,.71-3.83,10.75,10.75,0,0,1,2-3.27,9.53,9.53,0,0,1,3-2.28,8.87,8.87,0,0,1,7.64,0,9.53,9.53,0,0,1,3,2.36,11.21,11.21,0,0,1,1.94,3.3,10.6,10.6,0,0,1,.68,3.72,10.79,10.79,0,0,1-.71,3.87,10.48,10.48,0,0,1-2,3.26,9.51,9.51,0,0,1-3,2.25A8.71,8.71,0,0,1,205.17,40.17Zm-6.91-10.23a9.19,9.19,0,0,0,.49,3,8.48,8.48,0,0,0,1.42,2.53,6.71,6.71,0,0,0,2.19,1.76,6.21,6.21,0,0,0,2.84.65,6.14,6.14,0,0,0,2.9-.68,6.65,6.65,0,0,0,2.16-1.82,8,8,0,0,0,1.36-2.56,8.86,8.86,0,0,0,.48-2.87,8.63,8.63,0,0,0-.51-3,7.59,7.59,0,0,0-1.42-2.53A6.21,6.21,0,0,0,208,22.7,5.85,5.85,0,0,0,205.2,22a6.11,6.11,0,0,0-2.9.68,6.78,6.78,0,0,0-2.19,1.8,9.08,9.08,0,0,0-1.85,5.42Z"/><path class="cls-4" d="M99,65.24V48.57h6.25a6.58,6.58,0,0,1,3.22.72,4.7,4.7,0,0,1,2,2,6.27,6.27,0,0,1,0,5.68,4.82,4.82,0,0,1-2,2,6.82,6.82,0,0,1-3.25.71H101V57.13h3.73a3.83,3.83,0,0,0,1.84-.39,2.46,2.46,0,0,0,1.06-1.08,3.43,3.43,0,0,0,.35-1.57,3.38,3.38,0,0,0-.35-1.56,2.37,2.37,0,0,0-1.07-1.05,3.81,3.81,0,0,0-1.84-.38H102V65.24Zm17.78,0h-3.22l5.87-16.67h3.73L129,65.24h-3.22L121.33,52h-.13Zm.11-6.53h8.79v2.42h-8.79Zm27.47-4.81a4.29,4.29,0,0,0-.56-1.18,3.52,3.52,0,0,0-.85-.91,3.46,3.46,0,0,0-1.12-.56,4.7,4.7,0,0,0-1.38-.2,4.34,4.34,0,0,0-2.4.68,4.5,4.5,0,0,0-1.65,2,7.51,7.51,0,0,0-.59,3.17,7.65,7.65,0,0,0,.59,3.2,4.55,4.55,0,0,0,1.65,2,4.5,4.5,0,0,0,2.46.68,4.61,4.61,0,0,0,2.2-.49,3.55,3.55,0,0,0,1.44-1.38,4.37,4.37,0,0,0,.5-2.12l.69.11h-4.53V56.52h6.76v2a7.17,7.17,0,0,1-.91,3.7,6.17,6.17,0,0,1-2.5,2.41,8.44,8.44,0,0,1-7.71-.19,7.13,7.13,0,0,1-2.71-3,10,10,0,0,1-1-4.56,10.62,10.62,0,0,1,.57-3.6,7.89,7.89,0,0,1,1.61-2.7,7,7,0,0,1,2.43-1.69,7.67,7.67,0,0,1,3-.59,7.93,7.93,0,0,1,2.58.41,7,7,0,0,1,2.13,1.14,6.23,6.23,0,0,1,2.33,4Zm11.9-5.33V65.24h-3V48.57Zm19.72,0V65.24h-2.68l-7.86-11.35h-.14V65.24h-3V48.57H165l7.84,11.36H173V48.57Zm8.18,16.67h-3.22l5.87-16.67h3.73l5.87,16.67h-3.22L188.71,52h-.13Zm.11-6.53H193v2.42h-8.79Zm25.88-5.56a2.25,2.25,0,0,0-1-1.66A3.74,3.74,0,0,0,207,50.9a4.15,4.15,0,0,0-1.62.29,2.39,2.39,0,0,0-1,.77,1.82,1.82,0,0,0-.36,1.11,1.78,1.78,0,0,0,.23.91,2.27,2.27,0,0,0,.66.65,4.89,4.89,0,0,0,.92.44,9.83,9.83,0,0,0,1,.3l1.56.39a11.06,11.06,0,0,1,1.82.59,6.51,6.51,0,0,1,1.57.95,4.3,4.3,0,0,1,1.1,1.37,4,4,0,0,1,.41,1.89,4.5,4.5,0,0,1-.75,2.58,4.89,4.89,0,0,1-2.16,1.73,8.34,8.34,0,0,1-3.41.62,8.69,8.69,0,0,1-3.38-.6,5,5,0,0,1-2.23-1.76,5.19,5.19,0,0,1-.86-2.81h3a2.55,2.55,0,0,0,.53,1.45,3,3,0,0,0,1.23.86,4.87,4.87,0,0,0,1.71.28,4.61,4.61,0,0,0,1.73-.29,2.79,2.79,0,0,0,1.17-.83,2,2,0,0,0,.43-1.25,1.56,1.56,0,0,0-.38-1.08,2.77,2.77,0,0,0-1-.71,9.82,9.82,0,0,0-1.56-.52l-1.9-.49a7.73,7.73,0,0,1-3.26-1.61,3.7,3.7,0,0,1-1.18-2.87,4.31,4.31,0,0,1,.79-2.58A5.32,5.32,0,0,1,203.88,49a7.68,7.68,0,0,1,3.14-.62,7.38,7.38,0,0,1,3.11.62,5.16,5.16,0,0,1,2.1,1.7,4.34,4.34,0,0,1,.79,2.49Z"/><path class="cls-3" d="M69.32,4H58.07V24.57l-5,5a17.71,17.71,0,0,1,0,24.72,16.71,16.71,0,0,1-23.55.38l-.39-.38L21,62.12a28,28,0,0,0,39.45.55l.56-.55A28.58,28.58,0,0,0,69.1,44h.16Z"/></g></g></svg>