<?xml version="1.0" encoding="utf-8"?>
<!-- Generator: Adobe Illustrator 27.0.0, SVG Export Plug-In . SVG Version: 6.00 Build 0)  -->
<svg version="1.1" id="Capa_1" xmlns="http://www.w3.org/2000/svg" xmlns:xlink="http://www.w3.org/1999/xlink" x="0px" y="0px"
	 viewBox="0 0 387.2 147.3" style="enable-background:new 0 0 387.2 147.3;" xml:space="preserve">
<style type="text/css">
	.st0{fill:#2953C3;}
	.st1{fill:#545F6F;}
	.st2{fill:#D3D3D3;}
	.st3{fill:#EFEFEF;}
	.st4{fill:none;stroke:#F4F4F4;stroke-miterlimit:10;}
</style>
<g id="Capa_2_00000178204867020344203220000001602211282125083546_">
	<g id="Capa_1-2">
		<path class="st0" d="M201.9,56.8c0,5.6-1.8,9.9-5.3,12.9s-8.6,4.5-15.3,4.5h-10.8V40.1h11.9c6.1,0,10.9,1.5,14.3,4.4
			S201.9,51.5,201.9,56.8z M195.3,57c0-8.2-4.3-12.3-12.9-12.3H177v24.8h4.5C190.7,69.6,195.3,65.4,195.3,57z"/>
		<path class="st0" d="M215.1,74.2V40.1h6.3v34.1H215.1z"/>
		<path class="st0" d="M258.6,65c0.1,2.9-1.3,5.6-3.7,7.2c-2.5,1.7-5.9,2.6-10.2,2.6c-3.7,0.1-7.3-0.5-10.7-1.8v-5.3
			c1.8,0.7,3.7,1.3,5.6,1.7c1.8,0.4,3.7,0.6,5.5,0.6c1.9,0.1,3.8-0.3,5.5-1.3c1.1-0.8,1.8-2,1.8-3.4c0-1.3-0.6-2.5-1.6-3.2
			c-2.1-1.4-4.3-2.4-6.7-3.1c-3.5-1.3-6-2.7-7.4-4.3s-2.2-3.7-2.2-5.8c-0.1-2.7,1.2-5.2,3.4-6.7c2.3-1.6,5.4-2.5,9.2-2.5
			s7.5,0.7,11,2.2l-2,4.5c-2.9-1.2-6-1.8-9.2-1.9c-1.6-0.1-3.3,0.3-4.6,1.2c-1,0.7-1.6,1.9-1.6,3.1c0,0.8,0.2,1.6,0.6,2.3
			c0.6,0.7,1.3,1.3,2.1,1.8c1.7,0.9,3.4,1.6,5.2,2.2c2.2,0.7,4.3,1.7,6.2,2.9c1.2,0.8,2.2,1.8,2.9,3.1
			C258.3,62.2,258.6,63.6,258.6,65z"/>
		<path class="st0" d="M292.7,74.2h-21.8V40.1h21.8v4.7h-15.5v9.3h14.5v4.7h-14.5v10.7h15.5V74.2z"/>
		<path class="st0" d="M338,74.2h-7.7l-19-27.2h-0.2l0.1,1.5c0.2,2.9,0.4,5.5,0.4,7.9v17.8h-5.7V40.1h7.6l18.9,27.1h0.2
			c0-0.4-0.1-1.7-0.2-3.9s-0.2-4-0.2-5.3V40.1h5.8L338,74.2L338,74.2z M326,37.4c-0.7,0-1.5-0.1-2.2-0.4c-0.7-0.3-1.4-0.6-2.1-0.9
			c-0.7-0.3-1.4-0.6-2-0.9c-0.6-0.3-1.2-0.4-1.9-0.4c-1.4,0-2.4,0.9-2.9,2.7h-3.2c0-1.9,0.8-3.6,2-5c1.2-1.2,2.8-1.8,4.4-1.7
			c0.8,0,1.5,0.1,2.2,0.4s1.4,0.6,2.1,0.9s1.3,0.6,2,0.9c0.6,0.3,1.2,0.4,1.9,0.4c1.4,0,2.3-0.9,2.8-2.7h3.3c-0.1,1.8-0.8,3.5-2,4.9
			C329.3,36.8,327.6,37.4,326,37.4L326,37.4z"/>
		<path class="st0" d="M387.2,57.1c0,5.6-1.6,9.9-4.7,13s-7.6,4.6-13.3,4.6s-10.3-1.5-13.4-4.6s-4.7-7.4-4.7-13s1.6-10,4.7-13
			s7.6-4.5,13.4-4.5s10.1,1.5,13.3,4.6S387.2,51.6,387.2,57.1z M357.8,57.1c0,4.2,1,7.4,2.9,9.6s4.8,3.3,8.5,3.3
			c3.8,0,6.6-1.1,8.5-3.2s2.9-5.3,2.9-9.6s-0.9-7.4-2.8-9.5s-4.7-3.2-8.4-3.2s-6.6,1.1-8.5,3.2S357.8,52.9,357.8,57.1z"/>
		<path class="st1" d="M169.8,88.2c1.5-0.3,3.2-0.5,5-0.6s3.7-0.2,5.5-0.2c1.9,0,3.8,0.1,5.7,0.4c1.8,0.2,3.6,0.8,5.2,1.6
			c3.4,1.8,5.4,5.4,5.2,9.2c0.2,3.6-1.6,7-4.6,9c-1.4,0.9-3,1.6-4.7,2c-1.8,0.4-3.6,0.6-5.5,0.6h-0.9h-1.2c-0.4,0-0.9,0-1.3-0.1
			c-0.3,0-0.6,0-0.9-0.1v11.7h-7.4V88.2H169.8z M180.9,93.1c-0.7,0-1.4,0-2.1,0.1s-1.2,0.1-1.6,0.2v11c0.2,0,0.4,0.1,0.7,0.1
			s0.6,0.1,0.9,0.1h0.9h0.7c1,0,2-0.1,2.9-0.2s1.8-0.4,2.6-0.9c0.8-0.4,1.4-1.1,1.8-1.8c0.5-0.9,0.7-2,0.7-3c0-0.9-0.2-1.8-0.6-2.6
			c-0.4-0.7-1-1.3-1.7-1.7c-0.8-0.4-1.6-0.7-2.4-0.9C182.8,93.2,181.9,93.1,180.9,93.1z"/>
		<path class="st1" d="M218.4,114.3h-11.8l-2.9,7.5h-7.5L210,87.6h5.5l13.8,34.1h-7.9L218.4,114.3z M208.5,108.9h8.2l-2.8-7.6
			l-1.1-5.3h-0.3l-1.1,5.4L208.5,108.9z"/>
		<path class="st1" d="M247,104.1h14.3v15.1c-1.6,1.2-3.5,2-5.5,2.5c-2.1,0.5-4.2,0.8-6.3,0.8c-2.3,0-4.6-0.3-6.8-1
			c-2-0.6-3.9-1.7-5.4-3.2c-1.6-1.5-2.8-3.4-3.6-5.5c-0.9-2.5-1.4-5.2-1.3-7.9c-0.1-2.8,0.5-5.6,1.6-8.2c0.9-2.1,2.4-4,4.1-5.5
			c1.7-1.4,3.6-2.4,5.7-3c2.1-0.6,4.3-1,6.4-1c1.9,0,3.9,0.1,5.8,0.4c1.4,0.2,2.7,0.5,4,0.9l-1.5,5.6c-1-0.3-2-0.6-3.1-0.8
			c-1.4-0.2-2.9-0.3-4.3-0.3c-1.5,0-2.9,0.2-4.3,0.6c-1.3,0.4-2.5,1.1-3.4,2.1c-1,1-1.8,2.3-2.3,3.7c-1,3.5-1,7.2,0,10.7
			c0.4,1.3,1.2,2.6,2.1,3.6c0.9,0.9,2,1.7,3.2,2.1c1.3,0.5,2.6,0.7,3.9,0.7c0.9,0,1.9-0.1,2.8-0.3c0.8-0.2,1.6-0.5,2.3-1v-6.4
			l-8.2-0.8L247,104.1z"/>
		<path class="st1" d="M270.2,87.9h7.5v33.9h-7.5V87.9z"/>
		<path class="st1" d="M297.2,104.1l-3-5.3H294l0.9,5.3v17.7h-7.1V87.6h5.5l14.5,18l2.9,5.2h0.3l-0.9-5.2V87.9h7.1V122h-5.5
			L297.2,104.1z"/>
		<path class="st1" d="M345.1,114.3h-11.8l-2.9,7.5H323l13.8-34.1h5.5l13.8,34.1h-7.9L345.1,114.3z M335.3,108.9h8.2l-2.8-7.6
			l-1.1-5.3h-0.3l-1.1,5.4L335.3,108.9z"/>
		<path class="st1" d="M378.5,112.7c0-1-0.5-1.9-1.3-2.5c-1-0.7-2.1-1.3-3.2-1.8c-1.3-0.5-2.7-1.1-4.2-1.7c-1.5-0.5-2.9-1.2-4.2-2.1
			c-1.3-0.8-2.4-1.8-3.2-3.1c-0.9-1.4-1.4-3-1.3-4.7c0-1.5,0.3-2.9,0.9-4.3c0.6-1.2,1.5-2.2,2.6-3c1.2-0.8,2.6-1.4,4.1-1.8
			c1.7-0.4,3.5-0.6,5.3-0.6c2.1,0,4.2,0.2,6.3,0.5c1.7,0.3,3.3,0.8,4.9,1.5l-2.4,5.6c-1.1-0.6-2.4-1-3.6-1.2
			c-1.7-0.4-3.4-0.5-5.2-0.5c-1.4-0.1-2.8,0.2-4,0.9c-0.9,0.5-1.4,1.5-1.4,2.5s0.5,1.9,1.3,2.4c1,0.7,2.1,1.3,3.2,1.8
			c1.3,0.6,2.7,1.1,4.2,1.7s2.9,1.3,4.2,2.1c1.3,0.8,2.4,1.8,3.2,3c0.9,1.3,1.3,2.9,1.3,4.5s-0.3,3.2-1,4.7
			c-0.7,1.3-1.6,2.4-2.8,3.3c-1.3,0.9-2.8,1.6-4.4,1.9c-1.9,0.4-3.8,0.6-5.7,0.6c-2.4,0-4.8-0.2-7.2-0.7c-1.6-0.3-3.1-0.8-4.6-1.4
			l2.4-5.7c0.4,0.2,0.9,0.4,1.6,0.6c0.6,0.2,1.4,0.4,2.2,0.6c0.8,0.2,1.6,0.3,2.5,0.5c0.9,0.1,1.8,0.2,2.8,0.2
			c1.8,0.1,3.5-0.2,5.1-1C377.9,115.1,378.6,113.9,378.5,112.7z"/>
		<path class="st2" d="M146,0.3v115.1c0,16.9-13.7,30.6-30.6,30.6l0,0H0l0,0V28.7C0,12.9,12.8,0,28.7,0l0,0h117
			C145.9,0,146,0.1,146,0.3L146,0.3z"/>
		<path class="st3" d="M0.1,146.7l146-146l0.2,115.4c0,17.2-13.9,31.2-31.1,31.2c-0.1,0-0.2,0-0.2,0L0.1,146.7z"/>
		<path class="st1" d="M73.4,21.5c-5.7,0-11.4,1-16.8,2.9c-7.3,2.7-13.9,6.9-19.4,12.4C24.6,49.5,22.6,65.3,22.1,70.6
			c0.1,23.8,0.1,47.5,0.2,71.3h20.3v-37.2l9.1-8.9c-12.1-12.5-12.1-32.3,0-44.7C63.3,39,82.2,38.7,94.2,50.2
			c0.3,0.3,0.6,0.5,0.8,0.8l14.5-14.2C100,27,87,21.5,73.4,21.5z"/>
		<path class="st4" d="M107.7,35c-2.2-3.5-9.6-8.2-17.6-10.7c-5.4-1.8-11-2.8-16.7-2.9c-5.7,0-11.4,1-16.8,2.9
			c-7.3,2.7-13.9,6.9-19.4,12.4C25.1,49.1,22.8,64.2,22.3,69.4v72.4"/>
		<path class="st0" d="M124.3,4.9H104v37.2l-9.1,9c12.1,12.5,12.1,32.3,0,44.7c-11.5,11.9-30.6,12.2-42.5,0.7
			c-0.2-0.2-0.5-0.5-0.7-0.7L37.1,110c19.4,19.9,51.3,20.4,71.2,1c0.3-0.3,0.7-0.7,1-1c8.6-8.8,13.8-20.4,14.6-32.7h0.3L124.3,4.9z"
			/>
	</g>
</g>
</svg>
