<?xml version="1.0" encoding="utf-8"?>
<!-- Generator: Adobe Illustrator 27.0.0, SVG Export Plug-In . SVG Version: 6.00 Build 0)  -->
<svg version="1.1" id="Capa_1" xmlns="http://www.w3.org/2000/svg" xmlns:xlink="http://www.w3.org/1999/xlink" x="0px" y="0px"
	 viewBox="0 0 128 128" style="enable-background:new 0 0 128 128;" xml:space="preserve">
<style type="text/css">
	.st0{fill:#D3D3D3;}
	.st1{fill:#EFEFEF;}
	.st2{fill:#474F5A;}
	.st3{fill:none;stroke:#F4F3F4;stroke-miterlimit:10;}
	.st4{fill:#3AA5DE;}
</style>
<path class="st0" d="M127.7,0.3v99.9c0,14.7-11.9,26.5-26.5,26.6c0,0,0,0,0,0H1l0,0V24.9C1,11.2,12.2,0,25.9,0c0,0,0,0,0,0h101.5
	C127.6,0,127.7,0.1,127.7,0.3C127.7,0.3,127.7,0.3,127.7,0.3z"/>
<path class="st1" d="M1.1,127.3L127.8,0.6l0.2,100.1c0,14.9-12,27-26.9,27.1c-0.1,0-0.1,0-0.2,0L1.1,127.3z"/>
<path class="st2" d="M64.7,18.6c-4.9,0-9.9,0.8-14.5,2.5c-6.3,2.3-12.1,6-16.8,10.8C22.4,43,20.6,56.7,20.2,61.2
	c0.1,20.6,0.1,41.2,0.2,61.8H38V90.8l7.9-7.8c-10.5-10.8-10.5-28,0-38.8c10-10.4,26.5-10.7,36.8-0.7c0.2,0.2,0.5,0.5,0.7,0.7
	L96,31.9C87.8,23.4,76.5,18.6,64.7,18.6z"/>
<path class="st3" d="M94.4,30.4c-1.9-3-8.3-7.1-15.2-9.2c-4.7-1.6-9.6-2.4-14.5-2.5c-4.9,0-9.9,0.8-14.5,2.5
	c-6.3,2.3-12.1,6-16.8,10.8c-10.6,10.7-12.5,23.8-13,28.3v62.8"/>
<path class="st4" d="M108.9,4.2H91.3v32.3l-7.9,7.8c10.5,10.8,10.5,28,0,38.8c-10,10.3-26.5,10.6-36.9,0.6c-0.2-0.2-0.4-0.4-0.6-0.6
	L33.2,95.4c16.8,17.3,44.5,17.7,61.8,0.9c0.3-0.3,0.6-0.6,0.9-0.9c7.5-7.7,12-17.7,12.7-28.4h0.3L108.9,4.2z"/>
</svg>
